<svg id="b2af330c-2e16-4adc-9bc4-3081fa8c67dc" data-name="Layer 1" xmlns="http://www.w3.org/2000/svg" viewBox="0 0 179 270.68"><title>logo</title><path d="M143.07,7.38c66.45.22,109.51,70,78.87,129-23.94,46.06-49.19,91.45-74,137.06-1.12,2.07-3.69,4.73-5.5,4.67s-4.22-2.8-5.37-4.91c-24.8-45.62-49.94-91.06-74-137C32.23,77.28,76.11,7.16,143.07,7.38Zm-.8,152.48c34.43.06,62.7-27.74,62.94-61.91.23-34-28.09-62.43-62.32-62.61S80.22,63.14,80,97.33,108,159.79,142.27,159.86Z" transform="translate(-53 -7.38)" fill="#fff"/><path d="M153.87,101.2c1.1-.82,1.91-1.3,2.58-1.93,10.73-10,10.73-10,23.81-2.9l1.29.68c13.87,7.49,14.41,8.41,7.58,22.67-9.33,19.49-25.12,30.31-46.7,31.1-21.9.8-38.29-9.21-49.35-28.12-2.11-3.61-1.94-6.4.34-10,9-13.93,17.52-28.11,26.33-42.14,4.39-7,6.74-7,11.64-.27C138.84,80.55,146.28,90.79,153.87,101.2Zm-4.1,9.25-24-33.06-14.09,22.84,9.13,7.83c5.27-8,11-6.16,16.78-1.24a20.34,20.34,0,0,0,5.53,3.52C144.56,110.9,146.39,110.45,149.77,110.45Z" transform="translate(-53 -7.38)" fill="#fff"/></svg>