<svg id="ec3ca88c-464d-476a-b278-e8532491e7d0" data-name="Layer 1" xmlns="http://www.w3.org/2000/svg" viewBox="0 0 280 185">
  <title>high-difficulty</title>
  <path d="M223.76,103.09,177.11,68.73,142.26,2.83l-28.7,60.94L96,48.93,66.22,122.56,45.63,103.68.34,185H279.66ZM44.29,125.47c3.27,6.41,2.74,9.62,2.4,13.43-1.14,12.74,2.91,10,4.22,14.61.6,2.07.56,8.82.56,8.82l2.33-.9c1.54-.6,9.37-3.84,12.83-9.83,2.92-5,4.74-15.22,5.3-18.72L96,73.26a130,130,0,0,0,3.06,12.95c2.88,8.86,9,7.66,12.12,10.37,3.26,2.85,9.9,15.88,9.9,15.88l-1.55-39.68,15.19-32.24c-.86,13.77-.31,28.17,4.67,34.48,9.51,12,5.49,23.29-2.26,40.38a114.72,114.72,0,0,0-6.29,15.86c-.43,1.51-3,15.7,5.59,42.35h-119Z" fill="red"/>
</svg>
