<svg id="bb4e8a9a-8a4e-4f0c-b6f2-2fe1c61367cf" data-name="Layer 1" xmlns="http://www.w3.org/2000/svg" xmlns:xlink="http://www.w3.org/1999/xlink" viewBox="0 0 280 185">
  <defs>
    <linearGradient id="a86cd4bd-d204-41c0-9a93-79544bc66b48" x1="287.5" y1="432.05" x2="287.5" y2="320.85" gradientTransform="matrix(1, 0, 0, -1, -147.5, 505.85)" gradientUnits="userSpaceOnUse">
      <stop offset="0" stop-color="#00ff29"/>
      <stop offset="1" stop-color="#ff00e5"/>
    </linearGradient>
  </defs>
  <title>kids-friendly</title>
  <path d="M279.66,185H.34l6.23-8c.43-.55,42.93-55.26,72.59-91.65A32.48,32.48,0,0,1,103.45,73.8a32.48,32.48,0,0,1,24.29,11.52c4,4.94,7,11.4,10.06,18.23,6.31,13.93,11.48,23.79,20.56,23.8,5.47,0,12.35-9.53,16.46-15.22,1.36-1.88,2.64-3.66,3.85-5.14A25.45,25.45,0,0,1,218,107c22.64,27.79,55.09,69.56,55.41,70ZM22.5,174.72h235c-10.57-13.54-32.43-41.41-49-61.75a12.82,12.82,0,0,0-20.32,0c-1.05,1.3-2.21,2.91-3.48,4.66-6.09,8.44-14.43,20-26.33,20-17.72,0-25-16.1-31.43-30.28-2.83-6.24-5.51-12.13-8.7-16-2.84-3.48-8.67-7.23-14.79-7.23S91.51,87.82,88.67,91.3C65.87,119.27,35.45,158.13,22.5,174.72Z" fill="url(#a86cd4bd-d204-41c0-9a93-79544bc66b48)"/>
</svg>
