<svg id="b07720f3-0611-4c75-a38b-7b9ec23b4c84" data-name="Layer 1" xmlns="http://www.w3.org/2000/svg" xmlns:xlink="http://www.w3.org/1999/xlink" viewBox="0 0 280 111.2">
  <defs>
    <linearGradient id="b1cc4134-f6ea-49b8-a7b1-418a85b65984" x1="287.5" y1="358.25" x2="287.5" y2="247.05" gradientTransform="matrix(1, 0, 0, -1, -147.5, 358.25)" gradientUnits="userSpaceOnUse">
      <stop offset="0" stop-color="#00ff29"/>
      <stop offset="1" stop-color="#ff00e5"/>
    </linearGradient>
  </defs>
  <title>kids-friendly-form</title>
  <path d="M279.66,111.2H.34l6.24-8C7,102.62,49.5,47.91,79.16,11.52A32.48,32.48,0,0,1,103.45,0a32.48,32.48,0,0,1,24.29,11.52c4,4.94,7,11.4,10.06,18.24,6.31,13.92,11.48,23.78,20.56,23.79,5.47,0,12.35-9.53,16.46-15.22,1.36-1.88,2.65-3.66,3.85-5.14a25.45,25.45,0,0,1,39.34,0c22.64,27.79,55.09,69.56,55.41,70ZM22.5,100.93h235c-10.57-13.55-32.43-41.42-49-61.76a12.82,12.82,0,0,0-20.32,0c-1.05,1.3-2.21,2.91-3.48,4.67-6.09,8.43-14.43,20-26.33,20-17.72,0-25-16.1-31.43-30.27-2.83-6.25-5.51-12.14-8.7-16.06-2.84-3.48-8.67-7.22-14.79-7.22S91.51,14,88.67,17.5C65.88,45.47,35.45,84.33,22.5,100.93Z" fill="url(#b1cc4134-f6ea-49b8-a7b1-418a85b65984)"/>
</svg>
